<svg version="1.2" xmlns="http://www.w3.org/2000/svg" viewBox="0 0 27 24" width="27" height="24">
	<title>cart</title>
	<style>
		.s0 { fill: #ffffff } 
	</style>
	<path id="fa-shopping-cart" fill-rule="evenodd" class="s0" d="m10.2 21.2c0-1-0.8-1.8-1.8-1.8-1 0-1.9 0.8-1.9 1.8 0 1 0.9 1.8 1.9 1.8 1 0 1.8-0.8 1.8-1.8zm13 0c0-1-0.9-1.8-1.9-1.8-1 0-1.8 0.8-1.8 1.8 0 1 0.8 1.8 1.8 1.8 1 0 1.9-0.8 1.9-1.8zm1.8-15.5c0-0.5-0.4-0.9-0.9-0.9h-17.3c-0.2-0.7-0.2-1.8-1.2-1.8h-3.7c-0.5 0-0.9 0.4-0.9 0.9 0 0.5 0.4 0.9 0.9 0.9h3l2.5 11.7c-0.2 0.4-0.9 1.5-0.9 2 0 0.4 0.5 0.9 1 0.9h14.7c0.5 0 1-0.5 1-0.9 0-0.5-0.5-1-1-1h-13.2c0.1-0.2 0.3-0.5 0.3-0.9 0-0.3-0.1-0.6-0.2-1l15.1-1.7c0.5 0 0.8-0.4 0.8-0.9z"/>
</svg>