<svg version="1.2" xmlns="http://www.w3.org/2000/svg" viewBox="0 0 33 28" width="33" height="28">
	<title>twitter</title>
	<style>
		.s0 { fill: #424242 } 
	</style>
	<path id="fa-twitter" class="s0" d="m31 4.9c-1.1 0.4-2.2 0.8-3.4 0.9 1.2-0.8 2.2-1.9 2.6-3.3-1.1 0.6-2.4 1.2-3.8 1.4-1.1-1.2-2.6-1.9-4.3-1.9-3.3 0-6 2.7-6 6.1q0 0.7 0.2 1.3c-5-0.2-9.4-2.6-12.3-6.3-0.5 0.9-0.8 1.9-0.8 3.1 0 2.1 1.1 3.9 2.7 5-1 0-1.9-0.3-2.7-0.8q0 0.1 0 0.1c0 3 2 5.4 4.7 6q-0.7 0.2-1.5 0.2-0.6 0-1.1-0.1c0.7 2.4 2.9 4.1 5.5 4.2-2 1.6-4.6 2.6-7.4 2.6q-0.7 0-1.4-0.1c2.6 1.7 5.8 2.7 9.1 2.7 11 0 16.9-9.2 16.9-17.2q0-0.4 0-0.8c1.2-0.9 2.2-1.9 3-3.1z"/>
</svg>